<?xml version="1.0" ?>
<svg width="159" height="103" version="1.1" id="Vrstva_1" xmlns="http://www.w3.org/2000/svg" xmlns:xlink="http://www.w3.org/1999/xlink" x="0px" y="0px"
	 viewBox="0 0 159 103" style="enable-background:new 0 0 159 103;">
<path style="fill:#E2E2E2;" d="M1.016,35.506h17.82v-5.4H7.892c0.18-3.312,10.548-4.86,10.548-12.888
	c0-5.472-4.572-7.884-8.784-7.884c-6.696,0-9.072,5.544-9.072,5.544l4.68,3.132c0,0,1.368-2.736,3.816-2.736
	c1.332,0,2.772,0.756,2.772,2.556c0,3.708-11.124,5.4-11.124,14.904C0.728,33.597,0.836,34.498,1.016,35.506z"/>
<path style="fill:#E2E2E2;" d="M22.709,35.506h5.904v-5.904h-5.904V35.506z"/>
<g>
	<path style="fill:none;stroke:#DB1F27;stroke-width:2;stroke-miterlimit:10;" d="M32.486,60.513l41.062-44.224
		c3.58-1.256,5.268-1.061,6.182-0.664c0.263,0.114,0.641,0.59,0.974,1.173c0.361,0.631,0.669,1.388,0.724,1.949
		c0.122,1.257,0.008,2.885-0.647,4.942L34.995,62.664L32.486,60.513z"/>
	<path style="fill:none;stroke:#DB1F27;stroke-width:2;stroke-miterlimit:10;" d="M44.35,54.7"/>
	<path style="fill:none;stroke:#DB1F27;stroke-width:2;stroke-miterlimit:10;" d="M45.43,53.416l-3.101-3.392
		C68.22,27.318,80.78,23.688,80.78,23.688s-4.405-4.232-10.859-3.493"/>
</g>
<polygon style="fill:none;stroke:#DB1F27;stroke-miterlimit:10;" points="84.986,9.333 84.447,11.024 82.079,14.415 85.437,11.82 
	87.558,11.144 85.452,10.647 "/>
<polygon style="fill:none;stroke:#DB1F27;stroke-width:0.25;stroke-miterlimit:10;" points="35.038,61.883 33.343,60.476 
	42.329,50.847 44.795,53.598 "/>
<g>
	<path style="fill:none;stroke:#DB1F27;stroke-width:2;stroke-miterlimit:10;" d="M104.411,72.558h24.093
		C128.504,72.558,116.749,65.553,104.411,72.558z"/>
	<path style="fill:none;stroke:#DB1F27;stroke-width:2;stroke-miterlimit:10;" d="M141.801,44.7l-5.046-8.905l-2.652,4.763
		l-4.355,2.788c-1.914-2.701-4.624-4.8-7.789-5.957V17.63c0.989-0.404,1.584-0.913,1.584-1.468c0-1.312-3.303-2.376-7.378-2.376
		c-4.075,0-7.378,1.064-7.378,2.376c0,0.614,0.73,1.172,1.918,1.594v19.633c-6.294,2.3-10.796,8.322-10.796,15.413
		c0,9.07,7.353,16.423,16.423,16.423c9.07,0,16.423-7.353,16.423-16.423c0-1.758-0.278-3.449-0.79-5.035l4.79-3.066H141.801z"/>
</g>
<path style="fill:none;stroke:#DB1F27;stroke-width:2;stroke-miterlimit:10;" d="M85.925,72.057c0-0.526,0.033-1.043,0.08-1.556
	c-3.984-1.985-6.728-6.088-6.728-10.842c0-3.407,1.41-6.48,3.673-8.682c-1.919-0.497-3.93-0.765-6.005-0.765
	c-13.202,0-23.903,10.702-23.903,23.904S63.744,98.02,76.946,98.02c8.139,0,15.323-4.071,19.64-10.284
	C90.344,85.259,85.925,79.18,85.925,72.057z"/>
<circle style="fill:#F5CECF;stroke:#DB1F27;stroke-width:2;stroke-miterlimit:10;" cx="64.922" cy="68.236" r="3.543"/>
<circle style="fill:#F5CECF;stroke:#DB1F27;stroke-width:2;stroke-miterlimit:10;" cx="65.88" cy="86.784" r="4.091"/>
<circle style="fill:#F5CECF;stroke:#DB1F27;stroke-width:2;stroke-miterlimit:10;" cx="78.817" cy="75.228" r="2.403"/>
<circle style="fill:#F5CECF;stroke:#DB1F27;stroke-width:2;stroke-miterlimit:10;" cx="72.392" cy="57.399" r="2.422"/>
<circle style="fill:#F5CECF;stroke:#DB1F27;stroke-width:2;stroke-miterlimit:10;" cx="80.76" cy="90.875" r="3.068"/>
</svg>
