<svg width="159" height="103" viewBox="0 0 159 103" fill="none" xmlns="http://www.w3.org/2000/svg">
<path d="M1.01598 35.5055H18.836V30.1055H7.89198C8.07198 26.7935 18.44 25.2455 18.44 17.2175C18.44 11.7455 13.868 9.3335 9.65598 9.3335C2.95998 9.3335 0.583984 14.8775 0.583984 14.8775L5.26398 18.0095C5.26398 18.0095 6.63199 15.2735 9.07998 15.2735C10.412 15.2735 11.852 16.0295 11.852 17.8295C11.852 21.5375 0.727984 23.2295 0.727984 32.7335C0.727984 33.5975 0.835984 34.4975 1.01598 35.5055Z" fill="#E2E2E2"/>
<path d="M22.7091 35.5055H28.6131V29.6015H22.7091V35.5055Z" fill="#E2E2E2"/>
<path d="M23.642 94.6484C23.0792 94.6486 22.5252 94.5098 22.0289 94.2446C21.5326 93.9794 21.1093 93.5958 20.7967 93.1279C20.4841 92.66 20.2917 92.1223 20.2366 91.5623C20.1816 91.0022 20.2655 90.4373 20.481 89.9175L36.489 51.2715L37.3679 51.5564C38.1379 51.8064 38.925 52.0904 39.707 52.3984C40.489 52.7064 41.265 53.0404 41.989 53.3794C50.5675 57.4016 57.4668 64.3008 61.489 72.8794C61.833 73.6134 62.163 74.3794 62.47 75.1614C62.777 75.9364 63.06 76.7245 63.312 77.5005L63.598 78.3794L24.949 94.3884C24.5347 94.5605 24.0905 94.6488 23.642 94.6484ZM37.624 53.7484L22.324 90.6774C22.2158 90.9374 22.1874 91.2238 22.2424 91.5C22.2974 91.7762 22.4333 92.0297 22.6329 92.2284C22.8326 92.4257 23.0859 92.5601 23.3612 92.6149C23.6366 92.6696 23.922 92.6423 24.182 92.5364L61.113 77.2365C60.955 76.7855 60.786 76.3365 60.613 75.8865C60.321 75.1455 60.0059 74.4154 59.6799 73.7174C55.856 65.5631 49.298 59.0048 41.1439 55.1804C40.4559 54.8584 39.726 54.5444 38.975 54.2484C38.521 54.0794 38.072 53.9104 37.621 53.7534L37.624 53.7484Z" fill="#DB1F27"/>
<path d="M66.267 77.2745L65.926 76.2595C65.681 75.5265 65.406 74.7775 65.111 74.0345C64.822 73.3065 64.511 72.5745 64.175 71.8615C59.8302 62.5347 52.3348 55.0392 43.008 50.6945C42.308 50.3675 41.571 50.0535 40.833 49.7585C40.095 49.4635 39.341 49.1895 38.608 48.9435L37.593 48.6035L40.545 41.4775C40.8923 40.6395 41.5582 39.9737 42.3962 39.6264C43.2342 39.2791 44.1757 39.2788 45.014 39.6255C51.7953 42.425 57.9569 46.5366 63.1447 51.7242C68.3324 56.9119 72.4443 63.0732 75.244 69.8544V69.8544C75.5882 70.6932 75.5882 71.6337 75.244 72.4725C75.073 72.8881 74.8212 73.2657 74.5034 73.5834C74.1855 73.9012 73.8077 74.1526 73.392 74.3234L66.267 77.2745ZM40.253 47.4005C40.691 47.5595 41.132 47.7265 41.571 47.9005C42.344 48.2075 43.109 48.5365 43.847 48.8795C53.6027 53.4238 61.4427 61.2638 65.987 71.0195C66.333 71.7675 66.663 72.5335 66.966 73.2945C67.141 73.7335 67.308 74.1745 67.466 74.6135L72.626 72.4755C72.7991 72.4047 72.9564 72.3 73.0887 72.1678C73.2211 72.0356 73.3259 71.8785 73.397 71.7055C73.5401 71.3563 73.5401 70.9647 73.397 70.6154C70.6976 64.0769 66.733 58.1361 61.7309 53.1343C56.7288 48.1326 50.7877 44.1684 44.249 41.4695C43.9003 41.3257 43.5089 41.3259 43.1604 41.4703C42.8119 41.6146 42.5349 41.8912 42.39 42.2394L40.253 47.4005Z" fill="#DB1F27"/>
<path d="M34.7651 77.2944C34.7651 77.2944 34.765 77.2944 34.7649 77.2944C33.9958 77.2943 33.2447 77.0294 32.6499 76.5485C32.559 76.4749 32.4681 76.3934 32.3802 76.3068C31.8999 75.8254 31.5795 75.219 31.4537 74.5531C31.2469 73.4559 31.5937 72.3304 32.3813 71.5427C32.5279 71.396 32.6915 71.2609 32.8678 71.1407C33.4273 70.7579 34.0834 70.556 34.7662 70.556C34.8854 70.556 35.006 70.5624 35.1246 70.575C35.8974 70.6581 36.5975 70.9928 37.1473 71.5426C38.4603 72.8561 38.4602 74.994 37.147 76.3082C36.511 76.944 35.6649 77.2944 34.7651 77.2944Z" fill="#DC1C22" fill-opacity="0.2"/>
<path d="M34.7659 71.556C34.2856 71.556 33.8249 71.6975 33.4309 71.967C33.3062 72.052 33.191 72.1471 33.0883 72.2498C32.5345 72.8037 32.2907 73.5956 32.4363 74.3674C32.5243 74.8336 32.7482 75.2584 33.0841 75.5964C33.1483 75.6597 33.2141 75.7186 33.2786 75.7709C33.6961 76.1085 34.2239 76.2944 34.7648 76.2944C35.3977 76.2944 35.9927 76.048 36.4395 75.6013C37.3632 74.677 37.3634 73.1733 36.44 72.2498C35.9515 71.7612 35.3958 71.6099 35.0192 71.5693C34.9356 71.5605 34.8503 71.556 34.7659 71.556ZM34.7661 69.556C34.9208 69.556 35.0756 69.5642 35.2296 69.5804C36.1882 69.6836 37.119 70.1002 37.8543 70.8356C39.5599 72.5417 39.5599 75.3081 37.8543 77.015C37.001 77.868 35.883 78.2944 34.7648 78.2944C33.7921 78.2944 32.8193 77.9716 32.021 77.326C31.9015 77.2292 31.7861 77.1256 31.6741 77.015C31.0294 76.3696 30.6286 75.5728 30.471 74.7386C30.2125 73.3676 30.6134 71.8964 31.6741 70.8356C31.8711 70.6385 32.0825 70.4657 32.3044 70.3145C33.0443 69.8082 33.9052 69.556 34.7661 69.556Z" fill="#DB1F27"/>
<path d="M45.2701 70.4973C44.3699 70.4973 43.5236 70.1467 42.8873 69.5101C41.5736 68.197 41.5738 66.0592 42.8874 64.7444C43.5233 64.1089 44.3694 63.7585 45.2694 63.7585C46.1698 63.7585 47.0161 64.1091 47.6525 64.7455C48.2888 65.3818 48.6393 66.2279 48.6393 67.1281C48.6393 68.028 48.2889 68.8739 47.6526 69.5099C47.0162 70.1469 46.1702 70.4973 45.2701 70.4973Z" fill="#DC1C22" fill-opacity="0.2"/>
<path d="M45.2701 69.4973C45.903 69.4973 46.4978 69.251 46.9457 68.8026C47.393 68.3556 47.6393 67.7609 47.6393 67.1281C47.6393 66.495 47.3929 65.9 46.9454 65.4525C46.4979 65.005 45.9027 64.7585 45.2695 64.7585C44.6364 64.7585 44.0414 65.0049 43.5949 65.4512C42.6708 66.376 42.6705 67.8795 43.5946 68.8032C44.042 69.2509 44.637 69.4973 45.2701 69.4973ZM45.2701 71.4973C44.1517 71.4973 43.0332 71.0706 42.1801 70.2172C40.4738 68.5116 40.4745 65.7446 42.1801 64.0376C43.0332 63.1849 44.1511 62.7585 45.2695 62.7585C46.3878 62.7585 47.5065 63.1853 48.3596 64.0383C50.0659 65.7446 50.0659 68.5116 48.3596 70.2172C47.5068 71.0706 46.3885 71.4973 45.2701 71.4973Z" fill="#DB1F27"/>
<path d="M47.1245 82.2369C47.1244 82.2369 47.1244 82.2369 47.1243 82.2369C46.4546 82.2369 45.8083 82.0417 45.2553 81.6726C45.0719 81.55 44.8987 81.4077 44.7411 81.25C44.4271 80.9366 44.1825 80.5719 44.0132 80.1652C43.4856 78.8988 43.7714 77.4542 44.741 76.4845C45.3772 75.8486 46.2234 75.4984 47.1236 75.4984C48.0239 75.4984 48.8701 75.8486 49.5065 76.4847C49.823 76.8019 50.0702 77.1725 50.2405 77.5856C50.4934 78.2014 50.558 78.8739 50.427 79.5295C50.2965 80.1833 49.9782 80.7781 49.5063 81.2499C48.8701 81.8865 48.0242 82.2369 47.1245 82.2369Z" fill="#DC1C22" fill-opacity="0.2"/>
<path d="M47.1247 81.2369C47.7572 81.2369 48.3518 80.9906 48.7995 80.5427C49.1311 80.2111 49.3548 79.7932 49.4466 79.3335C49.5388 78.8718 49.4934 78.3984 49.316 77.9666C49.1963 77.6758 49.022 77.4147 48.7997 77.192C48.3522 76.7448 47.757 76.4984 47.1238 76.4984C46.4906 76.4984 45.8954 76.7448 45.4483 77.1917C44.7663 77.8737 44.5653 78.8898 44.9366 79.781C45.0553 80.066 45.227 80.3219 45.4484 80.543C45.5599 80.6545 45.6823 80.7551 45.8106 80.8409C46.1988 81.1 46.6531 81.2369 47.1245 81.2369H47.1247ZM47.1244 83.2369C46.2782 83.2369 45.4317 82.9926 44.7003 82.5044C44.4646 82.3468 44.2414 82.1644 44.034 81.957C43.6173 81.5411 43.3029 81.0608 43.0901 80.5493C42.4294 78.9634 42.7439 77.0677 44.034 75.7775C44.8872 74.9247 46.0055 74.4984 47.1238 74.4984C48.2422 74.4984 49.3605 74.9247 50.2136 75.7775C50.6352 76.1998 50.9516 76.6863 51.1652 77.2046C51.4942 78.0055 51.5757 78.8854 51.4077 79.7256C51.2447 80.5431 50.8473 81.3234 50.2136 81.957C49.3604 82.8107 48.2426 83.2371 47.1244 83.2369Z" fill="#DB1F27"/>
<path d="M149.885 55.1285C149.775 55.0919 149.661 55.073 149.545 55.0725C149.325 55.0718 149.111 55.1398 148.931 55.2669C148.752 55.394 148.617 55.5739 148.545 55.7815C148.317 56.4286 147.844 56.9601 147.228 57.2608C146.611 57.5616 145.901 57.6075 145.251 57.3885C144.073 56.9946 142.788 57.0789 141.672 57.6234C140.556 58.1679 139.698 59.1289 139.284 60.2995C139.24 60.4294 139.222 60.5668 139.231 60.7038C139.239 60.8408 139.275 60.9746 139.336 61.0976C139.397 61.2207 139.482 61.3305 139.585 61.4207C139.689 61.511 139.809 61.5799 139.939 61.6235C140.203 61.7115 140.49 61.6923 140.74 61.5702C140.99 61.448 141.181 61.2327 141.274 60.9705C141.502 60.3222 141.976 59.7898 142.594 59.4889C143.212 59.1881 143.923 59.143 144.574 59.3635C145.752 59.7598 147.038 59.6765 148.155 59.1315C149.272 58.5865 150.129 57.6238 150.541 56.4515C150.587 56.3217 150.606 56.1839 150.598 56.0464C150.589 55.9089 150.553 55.7746 150.491 55.6515C150.431 55.5283 150.347 55.4182 150.244 55.3278C150.141 55.2373 150.021 55.1682 149.891 55.1245" fill="#DC1C22"/>
<path d="M153.035 46.0025C152.772 45.9127 152.484 45.9311 152.234 46.0535C151.984 46.1759 151.793 46.3924 151.703 46.6555C151.476 47.3043 151.002 47.8373 150.384 48.1384C149.766 48.4395 149.054 48.4845 148.403 48.2635C147.915 48.0978 147.403 48.013 146.887 48.0125C145.909 48.0138 144.955 48.3188 144.158 48.8854C143.361 49.452 142.759 50.2522 142.436 51.1755C142.39 51.3044 142.371 51.4411 142.38 51.5774C142.388 51.7138 142.424 51.8471 142.485 51.9695C142.572 52.1448 142.706 52.2923 142.873 52.3953C143.039 52.4983 143.231 52.5528 143.427 52.5525C143.647 52.5535 143.861 52.4859 144.04 52.3589C144.22 52.2319 144.355 52.0521 144.427 51.8445C144.605 51.3346 144.937 50.8928 145.377 50.5803C145.817 50.2678 146.344 50.1001 146.884 50.1005C147.169 50.1007 147.453 50.1473 147.723 50.2385C148.901 50.6349 150.187 50.5514 151.304 50.006C152.421 49.4606 153.277 48.4972 153.689 47.3245C153.735 47.1946 153.754 47.0567 153.745 46.9193C153.736 46.7818 153.7 46.6475 153.638 46.5245C153.577 46.4011 153.492 46.291 153.388 46.2005C153.284 46.1101 153.163 46.0411 153.033 45.9975" fill="#DC1C22"/>
<path d="M154.647 37.6345C154.537 37.5977 154.423 37.5787 154.307 37.5785C154.087 37.5777 153.873 37.6455 153.694 37.7724C153.514 37.8994 153.379 38.0791 153.307 38.2865C153.135 38.7832 152.772 39.1914 152.3 39.4218C151.827 39.6521 151.282 39.6858 150.785 39.5155C149.759 39.1706 148.639 39.2431 147.666 39.7172C146.693 40.1913 145.946 41.029 145.585 42.0495C145.54 42.1793 145.522 42.3167 145.531 42.4538C145.539 42.5908 145.575 42.7247 145.636 42.8479C145.696 42.971 145.781 43.081 145.884 43.1714C145.988 43.2617 146.108 43.3308 146.238 43.3745C146.502 43.4627 146.79 43.4437 147.04 43.3216C147.29 43.1994 147.482 42.9839 147.574 42.7215C147.749 42.2261 148.111 41.8193 148.583 41.589C149.055 41.3586 149.599 41.3233 150.097 41.4905C150.522 41.6342 150.968 41.7078 151.417 41.7085C152.27 41.7099 153.102 41.4457 153.798 40.9526C154.494 40.4594 155.02 39.7618 155.301 38.9565C155.347 38.8266 155.366 38.6888 155.357 38.5513C155.348 38.4138 155.312 38.2795 155.25 38.1565C155.19 38.0335 155.106 37.9236 155.003 37.8331C154.9 37.7427 154.78 37.6735 154.65 37.6295" fill="#DC1C22"/>
<path d="M158.997 36.8675C159.067 34.4615 157.897 31.2525 155.518 29.7725C154.734 29.2726 153.823 29.0062 152.893 29.0045C151.933 29.0229 150.991 29.2689 150.145 29.7225C146.272 31.6995 143.455 37.5895 141.191 42.3225L140.462 43.8415L140.296 43.0745C140.063 41.976 139.578 40.9464 138.88 40.0669C138.182 39.1873 137.289 38.4817 136.272 38.0055L136.151 37.9485L136.124 37.8185C135.884 36.6745 135.313 35.6263 134.482 34.8045C133.65 33.9828 132.596 33.4239 131.449 33.1975L131.272 33.1615L131.238 32.9865C131.213 32.8577 131.182 32.7302 131.144 32.6045C130.908 31.8153 130.447 31.1118 129.818 30.5792C129.19 30.0467 128.42 29.7081 127.603 29.6045C127.433 29.5846 127.261 29.5745 127.09 29.5745C126.343 29.5731 125.609 29.7687 124.962 30.1415L124.829 30.2195L124.695 30.1455C124.076 29.8057 123.388 29.6127 122.683 29.5815C121.978 29.5504 121.275 29.6818 120.629 29.9658C119.983 30.2497 119.411 30.6785 118.957 31.219C118.503 31.7594 118.18 32.3971 118.012 33.0825L117.975 33.2365L117.82 33.2795C116.634 33.5967 115.584 34.2915 114.828 35.2587C114.072 36.226 113.651 37.4131 113.63 38.6405V38.8455L113.43 38.8965C112.072 39.2404 110.867 40.0255 110.004 41.1285C109.141 42.2315 108.668 43.5899 108.661 44.9905C108.659 45.767 108.802 46.5369 109.084 47.2605L109.14 47.4045L109.04 47.5245C108.329 48.3926 107.939 49.4787 107.935 50.6005C107.932 51.1957 108.041 51.7862 108.255 52.3415L107.742 52.6715C107.145 52.0004 106.421 51.4538 105.611 51.063C104.802 50.6723 103.924 50.4451 103.027 50.3945H102.846C102.568 50.4026 102.305 50.52 102.114 50.7211C101.922 50.9222 101.818 51.1908 101.823 51.4685C101.827 51.6054 101.858 51.7401 101.914 51.8649C101.971 51.9898 102.051 52.1023 102.151 52.1961C102.25 52.2899 102.368 52.3631 102.496 52.4116C102.624 52.46 102.76 52.4828 102.897 52.4785H102.905H103.005C103.67 52.5388 104.316 52.7333 104.904 53.0505C105.492 53.3676 106.009 53.8007 106.425 54.3235L106.706 54.6395L106.297 54.7565C104.268 55.3365 101.797 56.2735 100.649 58.3985C99.9644 59.8497 99.8534 61.5059 100.338 63.0355L100.365 63.1425L100.307 63.2425C100.097 63.5795 99.9924 63.9717 100.007 64.3685V64.3735L102.16 96.0525C102.257 97.8993 103.061 99.6378 104.406 100.908C105.75 102.178 107.532 102.881 109.381 102.874H146.468C148.321 102.883 150.107 102.182 151.459 100.915C152.811 99.6486 153.626 97.912 153.737 96.0625L156.143 63.2745C156.16 63.0256 156.111 62.7766 156.001 62.5525C155.891 62.3284 155.725 62.137 155.518 61.9975C155.327 61.8699 155.109 61.7894 154.881 61.7625L154.564 61.7215L154.664 61.4215C157.225 53.4729 158.683 45.2105 158.998 36.8655L158.997 36.8675ZM146.481 100.794H109.392C108.074 100.798 106.806 100.295 105.849 99.3892C104.893 98.4831 104.322 97.2433 104.256 95.9275V95.9275L102.116 64.4565L103.707 65.4055C104.873 66.0994 106.204 66.4656 107.561 66.4655H107.651C109.009 66.4655 110.342 66.0997 111.51 65.4065L111.968 65.1355C112.646 64.7262 113.423 64.5099 114.215 64.5099C115.007 64.5099 115.784 64.7262 116.462 65.1355L117.403 65.6955C118.418 66.2964 119.576 66.6119 120.756 66.6085C120.882 66.6085 121.003 66.6085 121.127 66.5995L121.417 66.5895H121.45L121.479 66.5805H121.508C122.382 66.4716 123.23 66.2039 124.008 65.7905V65.7905L124.199 65.6855L125.181 65.1295C125.859 64.7205 126.636 64.5044 127.428 64.5044C128.22 64.5044 128.997 64.7205 129.675 65.1295L130.614 65.6895C131.576 66.2534 132.664 66.5676 133.779 66.6035V66.6035C133.879 66.6035 133.958 66.6035 134.034 66.6035C134.322 66.6052 134.61 66.5862 134.895 66.5465C135.059 66.5234 135.221 66.4917 135.381 66.4515H135.403L135.597 66.4065C135.671 66.3895 135.745 66.3725 135.827 66.3485C136.398 66.2037 136.946 65.9813 137.456 65.6875L138.4 65.1275C139.078 64.7187 139.855 64.5027 140.647 64.5027C141.439 64.5027 142.216 64.7187 142.894 65.1275L143.834 65.6875C144.852 66.2919 146.013 66.611 147.197 66.6115H147.28H147.292C148.467 66.6111 149.621 66.3007 150.637 65.7115L153.181 64.5905L153.213 64.5765L153.24 64.5545C153.281 64.5209 153.326 64.4918 153.373 64.4675L153.973 64.2015L151.648 95.9395C151.571 97.2561 150.993 98.4933 150.032 99.3963C149.071 100.299 147.8 100.799 146.481 100.794V100.794ZM111.081 48.4195L111.604 47.9935L111.772 47.8565L111.664 47.6705L111.327 47.0925C110.955 46.4532 110.759 45.7264 110.76 44.9865C110.767 43.8934 111.196 42.8453 111.957 42.0613C112.719 41.2774 113.755 40.8184 114.847 40.7805L115.814 40.7405L116.125 40.7275L116.053 40.4275L115.831 39.4945C115.765 39.2264 115.732 38.9515 115.731 38.6755C115.742 37.7871 116.086 36.9351 116.694 36.2873C117.302 35.6395 118.131 35.2429 119.017 35.1755L119.753 35.1205L119.99 35.1025V34.8675V34.0355C120.01 33.5643 120.164 33.1085 120.433 32.7215C120.703 32.3344 121.077 32.0322 121.512 31.85C121.947 31.6679 122.425 31.6135 122.89 31.6931C123.355 31.7727 123.787 31.983 124.137 32.2995L124.693 32.7995L124.872 32.9605L125.045 32.7925L125.581 32.2695C125.984 31.8769 126.525 31.6585 127.088 31.6615C127.174 31.6613 127.261 31.6659 127.347 31.6755C127.757 31.7329 128.143 31.9068 128.457 32.1765C128.771 32.4463 129.002 32.8007 129.121 33.1975C129.2 33.4563 129.224 33.7289 129.191 33.9975L129.091 34.8875L129.06 35.1675H130.248C131.23 35.1662 132.175 35.5369 132.894 36.2049C133.614 36.8728 134.053 37.7885 134.124 38.7675L134.158 39.2855L134.169 39.4515L134.328 39.5075L134.821 39.6795C135.875 40.0382 136.787 40.7231 137.426 41.635C138.065 42.5469 138.396 43.6385 138.373 44.7515C138.344 45.738 138.022 46.6936 137.45 47.4975L137.28 47.7405L137.054 47.5495C136.259 46.9132 135.396 46.3675 134.481 45.9225H134.472L134.367 45.8675L134.342 45.8515C134.175 45.7635 134.017 45.6805 133.853 45.5895C133.777 45.5474 133.712 45.4881 133.664 45.4163C133.615 45.3446 133.584 45.2625 133.573 45.1765C133.556 45.0332 133.569 44.8879 133.611 44.75C133.654 44.6121 133.726 44.4848 133.821 44.3765C134.078 44.0812 134.264 43.7301 134.363 43.351C134.461 42.9718 134.471 42.5749 134.39 42.1915L134.232 41.4675C134.162 41.1428 134.027 40.8354 133.837 40.5633C133.646 40.2911 133.403 40.0597 133.122 39.8825C132.714 39.6218 132.24 39.483 131.756 39.4825C131.572 39.4827 131.389 39.5025 131.209 39.5415L130.925 39.5985H130.907L130.89 39.6045L130.838 39.6225H130.816L130.789 39.6285L123.175 41.2745C122.849 41.3448 122.539 41.4787 122.265 41.6687C121.99 41.8586 121.756 42.1009 121.575 42.3815C121.393 42.6588 121.268 42.9697 121.207 43.296C121.147 43.6223 121.153 43.9574 121.224 44.2815L121.289 44.5815L121.296 44.6145L121.31 44.6415V44.6775L121.316 44.7045L121.381 45.0045C121.467 45.3957 121.645 45.7606 121.901 46.0688C122.157 46.3771 122.482 46.6197 122.851 46.7765C122.982 46.8294 123.101 46.9079 123.202 47.0073C123.302 47.1067 123.382 47.2251 123.436 47.3555C123.465 47.4461 123.47 47.5426 123.451 47.6358C123.432 47.7289 123.389 47.8156 123.327 47.8875C123.227 48.0195 123.121 48.1535 123.003 48.3015C123.003 48.3065 122.614 48.7925 122.463 48.9885L122.316 49.1885C122.227 49.3075 122.11 49.4665 121.989 49.6405C121.946 49.7015 121.902 49.7675 121.831 49.8755L121.82 49.8915C121.72 50.0365 121.63 50.1915 121.53 50.3605C121.48 50.4455 121.43 50.5345 121.377 50.6285C121.277 50.8145 121.185 51.0105 121.106 51.1835L121.069 51.2625V51.2695C121.047 51.3145 121.023 51.3695 120.998 51.4285C120.876 51.7209 120.776 52.0217 120.698 52.3285V52.3355V52.3425L120.679 52.4425C120.616 52.7035 120.567 52.9679 120.535 53.2345C120.528 53.3035 120.524 53.3705 120.52 53.4345V53.4525L120.499 53.7345V53.7515C120.491 53.8375 120.483 53.9265 120.483 54.0245L120.473 54.7245L119.998 54.1855L119.926 54.0955C119.718 53.8225 119.497 53.5535 119.252 53.2745C119.186 53.1995 119.115 53.1225 119.036 53.0385C118.849 52.8385 118.657 52.6445 118.465 52.4635L118.289 52.2955C118.059 52.091 117.819 51.8984 117.569 51.7185L117.369 51.5875C117.193 51.4687 117.012 51.3589 116.825 51.2585C116.744 51.2145 116.655 51.1665 116.56 51.1215C116.378 51.0339 116.191 50.9558 116.001 50.8875L115.823 50.8185H115.815H115.807C115.617 50.7582 115.423 50.7082 115.228 50.6685L115.181 50.6515H115.161H115.105H115.083C115.054 50.6459 115.025 50.6385 114.997 50.6295L114.978 50.6235H114.958C114.883 50.6139 114.807 50.6089 114.731 50.6085H114.716C114.657 50.6085 114.59 50.6085 114.537 50.6015C114.511 50.6015 114.446 50.5925 114.398 50.5875C114.315 50.5785 114.279 50.5745 114.256 50.5745H114.226L114.126 50.5825C113.947 50.5872 113.768 50.6023 113.591 50.6275H113.566L113.461 50.6395H113.433C113.384 50.6455 113.333 50.6515 113.279 50.6615C113.031 50.7075 112.787 50.7689 112.547 50.8455L112.447 50.8745C111.811 51.0926 111.204 51.3892 110.641 51.7575L110.366 51.9355L110.244 51.6355C110.11 51.3056 110.042 50.9526 110.044 50.5965C110.045 50.1795 110.139 49.768 110.318 49.3915C110.497 49.015 110.758 48.6831 111.081 48.4195V48.4195ZM124.411 61.3325H124.445C124.786 61.3605 125.139 61.3895 125.471 61.3895C127.699 61.3845 129.861 60.6336 131.612 59.2565C132.209 58.8342 132.833 58.4517 133.481 58.1115L134.092 57.7905C133.878 58.3905 133.574 59.2435 133.5 59.4585C133.492 59.4805 133.288 60.0505 133.241 60.1925C132.823 61.4345 132.46 62.5845 132.131 63.7065L132.031 64.0395L130.853 63.3395C129.836 62.7329 128.673 62.412 127.489 62.4105H127.481H127.394C127.326 62.4105 127.262 62.4105 127.2 62.4195H127.159L126.923 62.4345H126.903C126.851 62.4345 126.797 62.4395 126.737 62.4455C126.039 62.5135 125.355 62.6931 124.714 62.9775L124.414 63.1115L124.096 61.6495L124.035 61.2915L124.411 61.3325ZM131.624 43.2325L124.324 44.8145C124.269 44.8264 124.212 44.8325 124.156 44.8325C123.97 44.8323 123.79 44.7692 123.645 44.6536C123.5 44.5379 123.398 44.3764 123.356 44.1955C123.312 43.9848 123.353 43.7652 123.471 43.5849C123.588 43.4046 123.772 43.2782 123.983 43.2335L131.302 41.6515C131.352 41.642 131.403 41.637 131.454 41.6365C131.639 41.6352 131.82 41.6973 131.965 41.8124C132.111 41.9275 132.213 42.0887 132.254 42.2695C132.277 42.3737 132.28 42.4816 132.26 42.5866C132.241 42.6916 132.2 42.7916 132.141 42.8805C132.025 43.0614 131.841 43.1887 131.631 43.2345L131.624 43.2325ZM135.031 55.3025L134.896 55.3365C133.272 55.788 131.748 56.5418 130.403 57.5585C129 58.6714 127.266 59.2841 125.476 59.2995C124.893 59.2947 124.311 59.2483 123.734 59.1605L123.549 59.1335L122.719 55.3145C122.155 52.7315 123.433 51.1225 124.561 49.7025L124.903 49.2665L124.956 49.1985V49.1425L124.999 49.1145L125.039 49.0875L125.067 49.0485C125.138 48.9485 125.203 48.8443 125.262 48.7365C125.552 48.1951 125.634 47.5663 125.493 46.9685L125.435 46.7065L131.481 45.4005L131.539 45.6605C131.568 45.8122 131.61 45.9611 131.664 46.1055C131.894 46.6646 132.309 47.1279 132.839 47.4185V47.4185C133.005 47.5085 134.213 48.1535 134.265 48.1805C134.393 48.2515 134.52 48.3315 134.65 48.4135L134.731 48.4635C134.874 48.5505 135.008 48.6375 135.131 48.7225C135.288 48.8305 135.442 48.9535 135.574 49.0595C135.706 49.1655 135.834 49.2855 135.952 49.3985C136.097 49.5405 136.218 49.6635 136.332 49.7985C136.557 50.0561 136.754 50.337 136.92 50.6365L136.981 50.7525L136.926 50.8715C136.426 51.9645 135.898 53.1835 135.326 54.5985L135.031 55.3025ZM152.012 62.6945L151.973 62.8035L149.615 63.8395H149.61C149.571 63.8574 149.533 63.8774 149.496 63.8995C148.818 64.3068 148.042 64.5219 147.251 64.5219C146.46 64.5219 145.684 64.3068 145.006 63.8995L144.066 63.3385C143.047 62.7325 141.884 62.4119 140.699 62.4105H140.693H140.603C139.416 62.41 138.251 62.7292 137.23 63.3345L136.287 63.8955C135.735 64.2116 135.121 64.404 134.487 64.4595L134.087 64.5045L134.201 64.1215L134.308 63.7855C134.654 62.6315 135.037 61.4455 135.481 60.1575C135.637 59.7045 135.803 59.2445 135.963 58.8005C136.29 57.9005 136.641 56.9755 137.037 55.9825L137.194 55.5825L137.212 55.5375C137.317 55.2715 137.425 54.9975 137.536 54.7305C138.684 51.9668 139.972 49.2633 141.395 46.6305C141.925 45.6555 142.521 44.4105 143.095 43.2055C145.109 38.9925 147.868 33.2225 151.107 31.5685C151.653 31.2705 152.262 31.1057 152.884 31.0875C153.421 31.089 153.947 31.2426 154.401 31.5305C155.202 32.1529 155.845 32.9547 156.279 33.8713C156.714 34.7879 156.927 35.7936 156.901 36.8075C156.587 45.067 155.128 53.243 152.567 61.1015C152.478 61.3815 152.281 61.9475 152.012 62.7015V62.6945ZM113.896 52.6735C114.007 52.6615 114.118 52.6555 114.23 52.6555C114.4 52.6556 114.57 52.6703 114.737 52.6995C114.782 52.7075 114.837 52.7225 114.937 52.7515H114.946C115.08 52.7817 115.211 52.8207 115.34 52.8685H115.346C115.403 52.8913 115.459 52.9174 115.514 52.9465H115.52L115.677 53.0215C115.776 53.0666 115.874 53.1167 115.968 53.1715C116.036 53.2115 116.105 53.2615 116.168 53.3075L116.326 53.4175C116.412 53.4755 116.499 53.5355 116.586 53.6045C116.673 53.6735 116.745 53.7415 116.817 53.8045L116.993 53.9625C117.065 54.0265 117.138 54.0905 117.21 54.1625C117.3 54.2525 117.393 54.3565 117.488 54.4625L117.639 54.6285C117.705 54.6995 117.768 54.7685 117.839 54.8475C117.939 54.9715 118.054 55.1185 118.152 55.2475L118.302 55.4425L118.312 55.4555C118.365 55.5225 118.412 55.5855 118.464 55.6555C118.596 55.8385 118.73 56.0405 118.905 56.3065C118.948 56.3685 119.065 56.5415 119.095 56.5885C119.311 56.9285 119.526 57.2885 119.732 57.6495C120.756 59.6831 121.067 62.002 120.614 64.2335L120.567 64.4715L120.323 64.4495C120.252 64.4425 120.182 64.4325 120.09 64.4185C119.555 64.3332 119.04 64.1498 118.572 63.8775L117.632 63.3175C116.614 62.7104 115.45 62.3895 114.265 62.3885H114.259H114.169C112.982 62.3882 111.817 62.7081 110.796 63.3145L110.337 63.5875C109.513 64.0849 108.57 64.3478 107.607 64.3478C106.645 64.3478 105.702 64.0849 104.878 63.5875L103.228 62.6025L103.019 62.4795L103.006 62.4715L102.993 62.4655L102.821 62.3885H102.816H102.811C102.694 62.3439 102.574 62.3104 102.451 62.2885L102.269 62.2555L102.233 62.0765C101.995 61.1682 102.086 60.2049 102.491 59.3575C103.091 58.2465 104.502 57.4075 106.935 56.7185C107.999 56.4159 108.976 55.8616 109.781 55.1025C110.126 54.7765 110.481 54.4665 110.871 54.1535C111.717 53.3818 112.763 52.8622 113.889 52.6535" fill="#DC1C22"/>
<path d="M107.597 84.7775H116.846C116.983 84.7779 117.119 84.7513 117.245 84.6993C117.372 84.6473 117.487 84.5708 117.584 84.4743C117.681 84.3778 117.758 84.2631 117.811 84.1367C117.864 84.0104 117.891 83.8749 117.892 83.738C117.892 83.6011 117.865 83.4655 117.813 83.3388C117.761 83.2122 117.685 83.0971 117.588 83C117.492 82.9029 117.377 82.8258 117.251 82.773C117.124 82.7203 116.989 82.6929 116.852 82.6925H107.606C107.469 82.6921 107.334 82.7186 107.207 82.7705C107.08 82.8225 106.965 82.8989 106.868 82.9954C106.771 83.0919 106.694 83.2065 106.641 83.3328C106.588 83.4591 106.561 83.5946 106.56 83.7315C106.56 83.8684 106.586 84.0041 106.638 84.1307C106.69 84.2574 106.766 84.3726 106.863 84.4697C106.959 84.5668 107.074 84.644 107.2 84.6968C107.327 84.7496 107.462 84.7771 107.599 84.7775" fill="#DC1C22"/>
<path d="M107.581 90.0146H119.472C119.609 90.015 119.745 89.9884 119.871 89.9364C119.998 89.8843 120.113 89.8079 120.21 89.7114C120.307 89.6148 120.384 89.5001 120.437 89.3738C120.49 89.2475 120.517 89.112 120.518 88.9751C120.518 88.8382 120.491 88.7025 120.439 88.5759C120.387 88.4493 120.311 88.3341 120.214 88.237C120.118 88.14 120.003 88.0628 119.877 88.0101C119.75 87.9573 119.615 87.93 119.478 87.9296H107.587C107.45 87.9292 107.314 87.9558 107.188 88.0078C107.061 88.0598 106.946 88.1363 106.849 88.2328C106.752 88.3293 106.675 88.444 106.622 88.5704C106.569 88.6967 106.542 88.8322 106.542 88.9691C106.541 89.106 106.568 89.2416 106.62 89.3682C106.672 89.4949 106.748 89.61 106.845 89.7071C106.941 89.8042 107.056 89.8813 107.182 89.9341C107.309 89.9868 107.444 90.0142 107.581 90.0146" fill="#DC1C22"/>
<path d="M122.105 93.1705H107.571C107.295 93.1697 107.029 93.2788 106.833 93.4736C106.637 93.6685 106.527 93.9332 106.526 94.2095C106.525 94.4859 106.634 94.7512 106.829 94.9472C107.024 95.1432 107.289 95.2537 107.565 95.2545H122.098C122.235 95.255 122.37 95.2285 122.497 95.1766C122.624 95.1246 122.739 95.0483 122.836 94.9518C122.933 94.8554 123.01 94.7408 123.063 94.6145C123.116 94.4883 123.143 94.3529 123.143 94.216C123.144 94.0792 123.117 93.9436 123.065 93.817C123.013 93.6904 122.937 93.5753 122.841 93.4782C122.744 93.3811 122.63 93.304 122.503 93.2512C122.377 93.1984 122.242 93.171 122.105 93.1705" fill="#DC1C22"/>
<path d="M130.032 93.1705H127.39C127.253 93.1701 127.118 93.1967 126.991 93.2487C126.864 93.3007 126.749 93.3771 126.652 93.4736C126.456 93.6685 126.346 93.9332 126.345 94.2095C126.344 94.4859 126.453 94.7512 126.648 94.9472C126.843 95.1432 127.108 95.2537 127.384 95.2545H130.026C130.302 95.2553 130.568 95.1463 130.764 94.9515C130.96 94.7566 131.07 94.4919 131.071 94.2155C131.072 93.9392 130.963 93.6738 130.768 93.4778C130.573 93.2819 130.308 93.1713 130.032 93.1705Z" fill="#DC1C22"/>
<path d="M113.895 52.6736C114.006 52.6615 114.117 52.6555 114.229 52.6556C114.399 52.6556 114.569 52.6704 114.736 52.6996C114.781 52.7076 114.836 52.7226 114.936 52.7516H114.945C115.079 52.7817 115.21 52.8208 115.339 52.8686H115.345C115.402 52.8914 115.459 52.9174 115.513 52.9466H115.519L115.676 53.0216C115.775 53.0666 115.873 53.1167 115.967 53.1716C116.035 53.2116 116.104 53.2616 116.167 53.3076L116.325 53.4176C116.411 53.4756 116.498 53.5356 116.585 53.6046C116.672 53.6736 116.744 53.7416 116.816 53.8046L116.992 53.9626C117.064 54.0266 117.137 54.0906 117.209 54.1626C117.299 54.2526 117.392 54.3566 117.487 54.4626L117.638 54.6286C117.704 54.6996 117.767 54.7686 117.838 54.8476C117.938 54.9716 118.053 55.1186 118.151 55.2476L118.301 55.4426L118.311 55.4556C118.364 55.5226 118.411 55.5856 118.463 55.6556C118.595 55.8386 118.729 56.0406 118.904 56.3066C118.947 56.3686 119.064 56.5416 119.094 56.5886C119.31 56.9286 119.525 57.2886 119.731 57.6496C120.755 59.6832 121.066 62.0021 120.613 64.2336L120.566 64.4716L120.322 64.4496C120.251 64.4426 120.181 64.4326 120.089 64.4186C119.554 64.3332 119.039 64.1498 118.571 63.8776L117.631 63.3176C116.613 62.7105 115.449 62.3895 114.264 62.3886H114.258H114.168C112.981 62.3883 111.816 62.7082 110.795 63.3146L110.336 63.5876C109.512 64.0849 108.569 64.3478 107.606 64.3478C106.644 64.3478 105.701 64.0849 104.877 63.5876L103.227 62.6026L103.018 62.4796L103.005 62.4716L102.992 62.4656L102.82 62.3886H102.815H102.81C102.693 62.3439 102.573 62.3105 102.45 62.2886L102.268 62.2556L102.232 62.0766C101.994 61.1682 102.085 60.205 102.49 59.3576C103.09 58.2466 104.501 57.4076 106.934 56.7186C107.999 56.4159 108.975 55.8617 109.78 55.1026C110.125 54.7766 110.48 54.4666 110.87 54.1536C111.716 53.3819 112.762 52.8623 113.888 52.6536" fill="#F5CECF"/>
<path d="M97.4762 20.5055H61.5232C61.1627 20.4755 60.8131 20.3666 60.4994 20.1863C60.1857 20.0061 59.9156 19.7589 59.7081 19.4626C59.4877 19.1583 59.3325 18.8117 59.2522 18.4447C59.1718 18.0777 59.168 17.698 59.2411 17.3295C60.245 12.6985 62.8059 8.55162 66.4969 5.58011C70.188 2.60859 74.7861 0.992076 79.5246 1.00003C84.2632 1.00798 88.8557 2.63992 92.5367 5.62381C96.2178 8.6077 98.7648 12.7632 99.7532 17.3975C99.8282 17.7533 99.8254 18.1212 99.7447 18.4757C99.6641 18.8303 99.5077 19.1632 99.2861 19.4516C99.0833 19.7523 98.8152 20.0032 98.5018 20.1857C98.1884 20.3682 97.8378 20.4776 97.4762 20.5055ZM61.5321 18.7345H97.4762C97.6482 18.634 97.7965 18.4975 97.9111 18.3345C98.0184 18.167 98.0585 17.9653 98.0232 17.7696C97.1203 13.5312 94.7919 9.73045 91.4261 7.00088C88.0604 4.27131 83.8608 2.77786 79.5273 2.76956C75.1939 2.76126 70.9886 4.23858 67.6124 6.95523C64.2363 9.67188 61.8933 13.4637 60.9741 17.6985C60.9407 17.9215 60.9807 18.1493 61.0881 18.3476C61.2015 18.513 61.3544 18.6475 61.5331 18.7386L61.5321 18.7345Z" fill="#DB1F27" stroke="#DB1F27" stroke-width="0.5" stroke-miterlimit="10"/>
<path d="M84.869 45.7146C84.044 45.7146 83.203 45.7065 82.352 45.6985C80.536 45.6805 78.6099 45.6795 76.7939 45.6985C68.0419 45.7835 60.4759 45.8545 59.0749 37.2655C59.021 36.9305 59.0399 36.588 59.1303 36.261C59.2207 35.934 59.3804 35.6301 59.5986 35.3704C59.8168 35.1106 60.0884 34.9009 60.395 34.7555C60.7015 34.6101 61.0357 34.5323 61.3749 34.5276H97.7499C98.0898 34.5302 98.4249 34.607 98.7319 34.7528C99.0388 34.8986 99.3102 35.1098 99.5269 35.3716C99.7441 35.6329 99.903 35.9375 99.993 36.2651C100.083 36.5928 100.102 36.9359 100.049 37.2715C98.7879 45.0185 92.515 45.7146 84.869 45.7146ZM79.5629 43.9095C80.5159 43.9095 81.452 43.9185 82.369 43.9275C91.81 44.0185 97.2019 43.7405 98.3029 36.9845C98.3158 36.9016 98.3111 36.817 98.2892 36.7361C98.2674 36.6551 98.2288 36.5796 98.176 36.5145C98.1251 36.4502 98.061 36.3976 97.988 36.3604C97.915 36.3231 97.8348 36.3021 97.7529 36.2986H61.3779C61.2957 36.3022 61.2153 36.3232 61.142 36.3605C61.0687 36.3977 61.0043 36.4503 60.9529 36.5145C60.8994 36.5789 60.8604 36.654 60.8384 36.7347C60.8165 36.8155 60.8123 36.9 60.826 36.9825C61.926 43.7385 67.3259 44.0225 76.7789 43.9275C77.6869 43.9175 78.6149 43.9086 79.5629 43.9086V43.9095Z" fill="#DB1F27" stroke="#DB1F27" stroke-width="0.5" stroke-miterlimit="10"/>
<path d="M100.348 31.6266H58.6479C57.6835 31.6279 56.7579 31.2467 56.0741 30.5667C55.3903 29.8866 55.004 28.963 55 27.9985V27.3705C55.0011 26.4035 55.3856 25.4764 56.0693 24.7925C56.753 24.1086 57.68 23.7239 58.647 23.7225H100.347C101.315 23.7231 102.243 24.1075 102.927 24.7914C103.612 25.4753 103.997 26.4028 103.999 27.3705V27.9985C103.995 28.9633 103.608 29.8869 102.923 30.567C102.239 31.2471 101.313 31.6282 100.348 31.6266V31.6266Z" fill="#F5CECF" stroke="#DB1F27" stroke-width="2" stroke-miterlimit="10"/>
<path d="M72.696 7.58948C72.4172 7.58987 72.1448 7.67291 71.9132 7.82813C71.6815 7.98334 71.5011 8.20375 71.3947 8.46149C71.2883 8.71922 71.2608 9.00272 71.3155 9.27612C71.3702 9.54953 71.5047 9.80061 71.7021 9.99756C71.8995 10.1945 72.1507 10.3285 72.4243 10.3826C72.6978 10.4368 72.9813 10.4086 73.2388 10.3017C73.4964 10.1948 73.7163 10.0139 73.871 9.78192C74.0258 9.54996 74.1083 9.2773 74.1081 8.99848C74.108 8.81323 74.0712 8.62983 74.0002 8.45874C73.9292 8.28766 73.8252 8.13226 73.694 8.00141C73.5629 7.87055 73.4073 7.76685 73.236 7.69617C73.0648 7.62549 72.8812 7.58922 72.696 7.58948V7.58948Z" fill="#DC1C22"/>
<path d="M82.323 6.94847C82.3234 6.66908 82.2409 6.3958 82.086 6.16332C81.931 5.93083 81.7106 5.74953 81.4526 5.64238C81.1945 5.53523 80.9105 5.50705 80.6364 5.56139C80.3623 5.61572 80.1106 5.75019 79.913 5.94768C79.7154 6.14517 79.5807 6.39686 79.5262 6.67088C79.4716 6.94491 79.4997 7.22894 79.6066 7.48705C79.7136 7.74515 79.8947 7.96571 80.1271 8.12084C80.3595 8.27596 80.6326 8.35864 80.912 8.35844C81.0973 8.35858 81.2808 8.32219 81.452 8.25139C81.6231 8.18059 81.7787 8.07679 81.9097 7.94585C82.0408 7.8149 82.1447 7.6594 82.2156 7.48827C82.2865 7.31713 82.323 7.13372 82.323 6.94847V6.94847Z" fill="#DC1C22"/>
<path d="M68.588 13.7465C68.3091 13.7469 68.0366 13.8299 67.805 13.9851C67.5734 14.1403 67.393 14.3607 67.2866 14.6184C67.1802 14.8761 67.1526 15.1597 67.2073 15.4331C67.2621 15.7065 67.3966 15.9576 67.5939 16.1545C67.7913 16.3515 68.0427 16.4854 68.3162 16.5396C68.5898 16.5937 68.8732 16.5656 69.1307 16.4586C69.3882 16.3517 69.6083 16.1708 69.763 15.9388C69.9177 15.7069 70.0002 15.4342 70 15.1554C70 14.9701 69.9634 14.7867 69.8924 14.6156C69.8214 14.4445 69.7174 14.289 69.5863 14.1581C69.4551 14.0272 69.2994 13.9234 69.1281 13.8528C68.9568 13.7822 68.7732 13.7461 68.588 13.7465V13.7465Z" fill="#DC1C22"/>
<path d="M91.1809 10.6665C90.902 10.6669 90.6297 10.7499 90.398 10.9052C90.1664 11.0604 89.986 11.2808 89.8796 11.5386C89.7732 11.7963 89.7457 12.0797 89.8004 12.3532C89.8551 12.6266 89.9896 12.8776 90.187 13.0746C90.3843 13.2715 90.6356 13.4056 90.9091 13.4597C91.1827 13.5139 91.4662 13.4856 91.7237 13.3787C91.9812 13.2717 92.2012 13.0909 92.3559 12.8589C92.5106 12.6269 92.5932 12.3544 92.593 12.0756C92.593 11.8903 92.5564 11.7068 92.4854 11.5356C92.4144 11.3645 92.3103 11.209 92.1792 11.0781C92.048 10.9473 91.8923 10.8436 91.721 10.773C91.5497 10.7023 91.3661 10.6661 91.1809 10.6665V10.6665Z" fill="#DC1C22"/>
<path d="M81.942 12.7184C81.6631 12.7184 81.3904 12.8011 81.1586 12.9561C80.9267 13.111 80.746 13.3312 80.6393 13.5889C80.5326 13.8465 80.5047 14.1301 80.5591 14.4036C80.6135 14.6771 80.7478 14.9283 80.9449 15.1255C81.1421 15.3227 81.3934 15.4569 81.6669 15.5114C81.9404 15.5658 82.2239 15.5379 82.4816 15.4312C82.7392 15.3244 82.9595 15.1436 83.1144 14.9117C83.2693 14.6799 83.3519 14.4073 83.3519 14.1284C83.3519 13.9433 83.3155 13.7599 83.2446 13.5889C83.1738 13.4178 83.0699 13.2624 82.939 13.1315C82.808 13.0005 82.6526 12.8967 82.4816 12.8258C82.3105 12.7549 82.1272 12.7184 81.942 12.7184V12.7184Z" fill="#DC1C22"/>
</svg>
