<svg width="153" height="86" viewBox="0 0 153 86" fill="none" xmlns="http://www.w3.org/2000/svg">
<path d="M118.218 74.53H118.306C119.299 74.53 120.251 74.1356 120.953 73.4337C121.655 72.7317 122.049 71.7798 122.049 70.787V66.478H120.267C118.922 66.478 117.632 65.9437 116.681 64.9927C115.73 64.0417 115.196 62.752 115.196 61.407V60.264C115.197 59.9674 115.315 59.6833 115.525 59.4736C115.734 59.2639 116.019 59.1458 116.315 59.145H120.849C120.114 57.532 119.053 56.0884 117.733 54.905L111.221 49.071C104.157 42.734 94.9992 39.2319 85.509 39.238H67.0271C64.8717 39.238 62.8045 40.0942 61.2804 41.6183C59.7563 43.1425 58.9 45.2096 58.9 47.3651V69.312C58.9019 70.1988 59.1315 71.0705 59.5668 71.8432C60.0021 72.6159 60.6286 73.2639 61.3861 73.725L61.2561 76.1559C59.8975 75.6001 58.735 74.6524 57.9169 73.4335C57.0987 72.2147 56.662 70.7799 56.6621 69.312V47.3651C56.662 46.004 56.9299 44.6562 57.4507 43.3987C57.9715 42.1413 58.7349 40.9987 59.6973 40.0363C60.6597 39.0738 61.8023 38.3105 63.0598 37.7897C64.3173 37.2689 65.6651 37.0008 67.0261 37.001H84.8031C95.2964 37.0008 105.421 40.8729 113.236 47.8751L119.225 53.2401C120.816 54.6677 122.089 56.4144 122.961 58.3664C123.833 60.3184 124.285 62.4321 124.286 64.57V70.789C124.286 72.375 123.656 73.896 122.535 75.0175C121.413 76.139 119.892 76.769 118.306 76.769H118.167L118.218 74.53ZM117.433 61.409C117.433 62.1599 117.731 62.8801 118.262 63.4112C118.793 63.9423 119.513 64.2408 120.264 64.241H122.04C122.011 63.2754 121.874 62.3161 121.631 61.381H117.431L117.433 61.409Z" fill="#DC1C22"/>
<path d="M100.574 74.53H78.9121V76.767H100.574V74.53Z" fill="#DC1C22"/>
<path d="M107.693 71.848C107.075 72.0161 106.512 72.3427 106.058 72.7956C105.605 73.2485 105.278 73.8118 105.11 74.4299C104.932 75.0685 104.928 75.743 105.096 76.3841C105.264 77.0253 105.6 77.6102 106.069 78.0791C106.537 78.548 107.122 78.884 107.763 79.0528C108.404 79.2216 109.078 79.2173 109.717 79.04C110.335 78.8715 110.898 78.5447 111.351 78.0919C111.804 77.639 112.131 77.0759 112.3 76.458C112.478 75.8193 112.483 75.1448 112.315 74.5035C112.147 73.8622 111.811 73.277 111.342 72.8081C110.874 72.3391 110.289 72.003 109.648 71.8343C109.006 71.6656 108.332 71.6704 107.693 71.848V71.848ZM108.306 77.441C107.945 77.3681 107.611 77.1985 107.338 76.9505C107.066 76.7025 106.866 76.3853 106.759 76.0327C106.653 75.68 106.644 75.3051 106.734 74.9478C106.824 74.5906 107.009 74.2643 107.269 74.0039C107.53 73.7434 107.856 73.5585 108.213 73.4687C108.57 73.3789 108.945 73.3877 109.298 73.4941C109.651 73.6005 109.968 73.8006 110.216 74.073C110.464 74.3453 110.633 74.6799 110.706 75.041C110.771 75.3702 110.754 75.7103 110.657 76.0314C110.559 76.3525 110.384 76.6447 110.147 76.882C109.91 77.1194 109.618 77.2946 109.297 77.3923C108.976 77.49 108.635 77.507 108.306 77.442V77.441Z" fill="#DC1C22"/>
<path d="M108.704 65.874C106.812 65.874 104.961 66.4353 103.387 67.4868C101.814 68.5384 100.587 70.033 99.8627 71.7817C99.1384 73.5304 98.9489 75.4546 99.3182 77.311C99.6874 79.1674 100.599 80.8727 101.937 82.2111C103.276 83.5494 104.981 84.4608 106.837 84.8301C108.694 85.1993 110.618 85.0099 112.367 84.2855C114.115 83.5612 115.61 82.3346 116.661 80.7609C117.713 79.1871 118.274 77.3367 118.274 75.444C118.274 72.9058 117.266 70.4717 115.471 68.677C113.677 66.8823 111.242 65.874 108.704 65.874ZM108.704 82.808C107.248 82.808 105.824 82.3761 104.613 81.5669C103.402 80.7577 102.458 79.6077 101.901 78.2621C101.343 76.9165 101.198 75.4358 101.482 74.0073C101.766 72.5788 102.467 71.2667 103.497 70.2368C104.527 69.2069 105.839 68.5057 107.268 68.2216C108.696 67.9374 110.177 68.0831 111.522 68.6405C112.868 69.1979 114.018 70.1418 114.827 71.3528C115.636 72.5638 116.068 73.9875 116.068 75.444C116.068 77.397 115.292 79.2701 113.911 80.6511C112.53 82.0321 110.657 82.808 108.704 82.808V82.808Z" fill="#DC1C22"/>
<path d="M109.5 78.5C111.157 78.5 112.5 77.1569 112.5 75.5C112.5 73.8431 111.157 72.5 109.5 72.5C107.843 72.5 106.5 73.8431 106.5 75.5C106.5 77.1569 107.843 78.5 109.5 78.5Z" fill="#DC1C22" fill-opacity="0.2"/>
<path d="M70.5002 78.5C72.1571 78.5 73.5002 77.1569 73.5002 75.5C73.5002 73.8431 72.1571 72.5 70.5002 72.5C68.8434 72.5 67.5002 73.8431 67.5002 75.5C67.5002 77.1569 68.8434 78.5 70.5002 78.5Z" fill="#DC1C22" fill-opacity="0.2"/>
<path d="M69.7793 71.8481C69.1614 72.0164 68.598 72.3431 68.1451 72.7959C67.6923 73.2488 67.3656 73.812 67.1973 74.43C67.0196 75.0686 67.0147 75.743 67.1831 76.3842C67.3515 77.0254 67.687 77.6102 68.1556 78.0791C68.6242 78.548 69.2091 78.8841 69.8501 79.0529C70.4911 79.2217 71.1654 79.2174 71.8042 79.0401C72.4222 78.8716 72.9856 78.5448 73.4386 78.092C73.8916 77.6391 74.2185 77.076 74.3872 76.458C74.565 75.8193 74.5699 75.1447 74.4015 74.5035C74.2331 73.8622 73.8973 73.2772 73.4286 72.8083C72.9599 72.3393 72.375 72.0034 71.7338 71.8346C71.0926 71.6659 70.4181 71.6706 69.7793 71.8481V71.8481ZM70.3932 77.4411C70.0321 77.3681 69.6977 77.1986 69.4253 76.9506C69.1529 76.7026 68.9528 76.3854 68.8464 76.0328C68.74 75.6801 68.7313 75.3052 68.821 74.9479C68.9108 74.5907 69.0957 74.2644 69.3562 74.0039C69.6167 73.7435 69.9429 73.5586 70.3002 73.4688C70.6574 73.379 71.0324 73.3878 71.385 73.4942C71.7377 73.6006 72.0549 73.8006 72.3029 74.073C72.5508 74.3454 72.7203 74.68 72.7932 75.0411C72.8584 75.3702 72.8414 75.7104 72.7439 76.0315C72.6464 76.3526 72.4713 76.6448 72.234 76.8821C71.9968 77.1195 71.7047 77.2947 71.3837 77.3924C71.0626 77.49 70.7224 77.5071 70.3932 77.4421V77.4411Z" fill="#DC1C22" fill-opacity="0.99"/>
<path d="M70.7922 65.874C68.8994 65.874 67.0492 66.4353 65.4754 67.4868C63.9016 68.5384 62.675 70.033 61.9506 71.7817C61.2263 73.5304 61.0368 75.4546 61.4061 77.311C61.7753 79.1674 62.6868 80.8727 64.0252 82.2111C65.3636 83.5494 67.0687 84.4608 68.9251 84.8301C70.7815 85.1993 72.7057 85.0099 74.4544 84.2855C76.2031 83.5612 77.6978 82.3346 78.7493 80.7609C79.8009 79.1871 80.3621 77.3367 80.3621 75.444C80.3621 72.9058 79.3539 70.4717 77.5591 68.677C75.7644 66.8823 73.3303 65.874 70.7922 65.874ZM70.7922 82.808C69.3357 82.808 67.912 82.3761 66.701 81.5669C65.49 80.7577 64.5461 79.6077 63.9887 78.2621C63.4313 76.9165 63.2855 75.4358 63.5696 74.0073C63.8538 72.5788 64.5551 71.2667 65.585 70.2368C66.6149 69.2069 67.9271 68.5057 69.3555 68.2216C70.784 67.9374 72.2647 68.0831 73.6103 68.6405C74.9559 69.1979 76.1059 70.1418 76.9151 71.3528C77.7243 72.5638 78.1562 73.9875 78.1562 75.444C78.1562 77.397 77.3803 79.2701 75.9993 80.6511C74.6183 82.0321 72.7452 82.808 70.7922 82.808Z" fill="#DC1C22"/>
<path d="M65.7361 57.545C65.4397 57.5439 65.1559 57.4256 64.9464 57.216C64.7369 57.0063 64.619 56.7223 64.6182 56.4259V50.635C64.6182 49.5797 64.826 48.5347 65.2299 47.5597C65.6337 46.5848 66.2256 45.6989 66.9718 44.9527C67.718 44.2065 68.6039 43.6146 69.5789 43.2107C70.5538 42.8069 71.5988 42.599 72.6541 42.599H87.9731C91.8527 42.5489 95.6855 43.4481 99.1381 45.218C103.965 47.7827 108.151 51.402 111.387 55.807C111.5 55.9753 111.565 56.1709 111.575 56.3732C111.585 56.5755 111.54 56.7767 111.445 56.9554C111.349 57.134 111.207 57.2833 111.033 57.3874C110.859 57.4914 110.661 57.5461 110.458 57.5459L65.7361 57.545ZM108.162 55.308C105.327 52.0093 101.912 49.2588 98.0841 47.193C94.9564 45.5946 91.4852 44.7854 87.9731 44.836H80.9672V55.308H108.162ZM78.7291 55.308V44.836H72.6521C71.1138 44.836 69.6386 45.4471 68.5509 46.5348C67.4632 47.6225 66.8521 49.0978 66.8521 50.636V55.309L78.7291 55.308Z" fill="#DC1C22"/>
<path d="M85.024 62.386C84.7332 62.3773 84.4572 62.2556 84.2545 62.0468C84.0519 61.838 83.9385 61.5585 83.9385 61.2675C83.9385 60.9765 84.0519 60.697 84.2545 60.4882C84.4572 60.2794 84.7332 60.1576 85.024 60.1489H88.9591C89.1088 60.1445 89.2578 60.1701 89.3975 60.2243C89.5371 60.2785 89.6644 60.3602 89.7719 60.4645C89.8793 60.5688 89.9647 60.6936 90.0231 60.8316C90.0814 60.9695 90.1115 61.1177 90.1115 61.2675C90.1115 61.4172 90.0814 61.5654 90.0231 61.7034C89.9647 61.8413 89.8793 61.9661 89.7719 62.0704C89.6644 62.1748 89.5371 62.2565 89.3975 62.3107C89.2578 62.3649 89.1088 62.3905 88.9591 62.386H85.024Z" fill="#DC1C22"/>
<path d="M49.082 68.0851H33" stroke="#DC1C22" stroke-width="2.2" stroke-linecap="round"/>
<path d="M98.284 23.959H89" stroke="#DC1C22" stroke-width="2.2" stroke-linecap="round"/>
<path d="M49.812 60.626H15.5" stroke="#DC1C22" stroke-width="2.2" stroke-linecap="round"/>
<path d="M103.961 16.5H80.7842" stroke="#DC1C22" stroke-width="2.2" stroke-linecap="round"/>
<path d="M49.271 53.9131H7.5" stroke="#DC1C22" stroke-width="2.2" stroke-linecap="round"/>
<path d="M0.0800781 24.048C0.0800781 24.048 3.10408 27.432 8.86408 27.432C15.3081 27.432 18.4041 23.04 18.4041 18.648C18.4041 15.048 15.9921 12.024 12.1761 11.196L17.3961 5.18401V1.26001H1.16008V6.66001H7.31608C8.93608 6.66001 9.76408 6.48001 9.76408 6.48001V6.55201C9.76408 6.55201 8.75608 7.48801 7.53208 8.96401L4.14808 13.032L5.48008 16.092H7.28008C10.0521 16.092 12.0681 16.92 12.0681 18.936C12.0681 20.34 10.7361 21.492 8.39608 21.492C5.40808 21.492 3.10408 19.188 3.10408 19.188L0.0800781 24.048Z" fill="#E2E2E2"/>
<path d="M22.217 27H28.121V21.096H22.217V27Z" fill="#E2E2E2"/>
<path d="M148.625 28.288C147.444 29.5533 146.046 30.5967 144.497 31.369V31.369C144.912 31.361 145.321 31.4769 145.67 31.702C146.019 31.927 146.294 32.251 146.458 32.6325C146.623 33.0141 146.67 33.436 146.593 33.8444C146.517 34.2529 146.321 34.6293 146.03 34.9258C145.739 35.2224 145.366 35.4256 144.959 35.5095C144.552 35.5934 144.13 35.5543 143.745 35.397C143.361 35.2398 143.032 34.9715 142.8 34.6265C142.568 34.2816 142.445 33.8755 142.445 33.46C142.444 32.9167 142.653 32.394 143.028 32.001C141.412 32.593 139.703 32.888 137.982 32.872C137.885 33.7617 137.971 34.6618 138.235 35.5169C138.499 36.372 138.936 37.1639 139.518 37.8436C140.1 38.5232 140.816 39.0763 141.62 39.4686C142.425 39.8609 143.301 40.0841 144.195 40.1245C145.089 40.1648 145.982 40.0213 146.818 39.7031C147.655 39.3848 148.417 38.8985 149.058 38.274C149.699 37.6495 150.206 36.9003 150.546 36.0724C150.886 35.2446 151.053 34.3558 151.036 33.461C151.039 32.4743 150.824 31.499 150.407 30.6049C149.989 29.7108 149.379 28.9201 148.621 28.289L148.625 28.288Z" stroke="#DB1F27" stroke-width="2" stroke-miterlimit="10"/>
<path d="M122.47 32.871H117.924C117.979 33.0624 118.008 33.2607 118.008 33.46C118.02 33.7368 117.976 34.0132 117.879 34.2726C117.781 34.532 117.632 34.7689 117.441 34.9691C117.249 35.1693 117.019 35.3288 116.764 35.4376C116.509 35.5465 116.235 35.6025 115.958 35.6025C115.681 35.6025 115.407 35.5465 115.152 35.4376C114.897 35.3288 114.667 35.1693 114.475 34.9691C114.284 34.7689 114.135 34.532 114.037 34.2726C113.94 34.0132 113.896 33.7368 113.908 33.46C113.908 33.2607 113.937 33.0624 113.992 32.871H109.446C109.43 33.065 109.419 33.261 109.419 33.46C109.4 34.3307 109.556 35.1964 109.876 36.0062C110.196 36.8161 110.675 37.5538 111.284 38.1761C111.894 38.7985 112.621 39.293 113.424 39.6306C114.226 39.9682 115.089 40.1421 115.96 40.1421C116.83 40.1421 117.693 39.9682 118.495 39.6306C119.298 39.293 120.025 38.7985 120.635 38.1761C121.244 37.5538 121.723 36.8161 122.043 36.0062C122.363 35.1964 122.519 34.3307 122.5 33.46C122.5 33.26 122.49 33.066 122.474 32.871H122.47Z" stroke="#DB1F27" stroke-width="2" stroke-miterlimit="10"/>
<path d="M149.201 20.5169C149.091 19.9295 148.846 19.3758 148.486 18.8991C148.125 18.4224 147.659 18.0359 147.124 17.77C145.546 16.9881 144.142 15.8968 142.995 14.5611C141.847 13.2254 140.981 11.6725 140.446 9.99493C140.989 10.5249 141.663 10.9012 142.399 11.085C142.522 11.1142 142.651 11.1147 142.775 11.0869C142.899 11.059 143.014 11.0032 143.114 10.9239C143.213 10.8446 143.292 10.7438 143.347 10.6291C143.401 10.5144 143.428 10.3888 143.427 10.2619V3.34997C143.428 3.22308 143.401 3.09748 143.347 2.98279C143.292 2.86809 143.213 2.7673 143.114 2.68799C143.014 2.60867 142.899 2.55298 142.775 2.52508C142.651 2.49718 142.522 2.49782 142.399 2.52697C142.047 2.61411 141.709 2.7462 141.391 2.91998C140.796 3.24687 140.284 3.70711 139.896 4.26471C139.509 4.8223 139.255 5.4621 139.156 6.13397L138.629 4.55694C138.533 4.26589 138.353 4.00984 138.111 3.82116C137.87 3.63249 137.578 3.51967 137.272 3.49695C137.233 3.47895 137.194 3.46094 137.153 3.44494L133.224 1.97296C133.027 1.90023 132.818 1.86744 132.608 1.87646C132.399 1.88548 132.193 1.93615 132.003 2.02551C131.813 2.11487 131.643 2.24111 131.503 2.39691C131.362 2.55271 131.254 2.73497 131.185 2.93298C131.038 3.33381 131.055 3.77625 131.231 4.16497C131.407 4.5537 131.73 4.85757 132.128 5.01098L135.661 6.33496C135.893 15.241 135.888 14.6349 135.861 15.1349C135.768 17.2181 135.088 19.2324 133.898 20.9446C132.708 22.6569 131.057 23.9971 129.137 24.81V24.085C129.142 22.8211 128.816 21.5776 128.193 20.4778C127.571 19.378 126.671 18.4598 125.585 17.8139C126.741 17.5501 127.758 16.8671 128.44 15.8969C129.032 15.061 129.349 14.0614 129.347 13.0369C129.348 12.9267 129.327 12.8175 129.286 12.7153C129.245 12.6131 129.184 12.52 129.107 12.4413C129.03 12.3627 128.938 12.3 128.836 12.2569C128.735 12.2138 128.626 12.191 128.516 12.19H116.47C116.36 12.191 116.251 12.2138 116.149 12.2569C116.048 12.3 115.956 12.3627 115.879 12.4413C115.802 12.52 115.741 12.6131 115.7 12.7153C115.659 12.8175 115.638 12.9267 115.639 13.0369V16.8649C112.713 17.0704 109.95 18.2858 107.822 20.3032C105.693 22.3206 104.332 25.0147 103.97 27.925C103.942 28.1352 103.958 28.3491 104.019 28.5524C104.079 28.7558 104.182 28.944 104.321 29.1047C104.459 29.2653 104.63 29.3948 104.822 29.4844C105.015 29.5741 105.224 29.622 105.436 29.6249H138.136C139.718 29.6218 141.281 29.2837 142.722 28.6329C144.164 27.982 145.451 27.0333 146.5 25.8489L148.281 23.8489C148.679 23.3993 148.968 22.8644 149.127 22.2853C149.285 21.7063 149.309 21.0986 149.196 20.509L149.201 20.5169Z" fill="#DC1C22" fill-opacity="0.2" stroke="#DB1F27" stroke-width="2" stroke-miterlimit="10"/>
</svg>
