<svg width="137" height="87" viewBox="0 0 137 87" fill="none" xmlns="http://www.w3.org/2000/svg">
<path d="M0.41147 25.5026H17.3846V20.3987H6.96069C7.13214 17.2684 17.0074 15.8053 17.0074 8.21751C17.0074 3.0456 12.6527 0.765869 8.64086 0.765869C2.26308 0.765869 0 6.00584 0 6.00584L4.45759 8.96608C4.45759 8.96608 5.76057 6.38012 8.09223 6.38012C9.36093 6.38012 10.7325 7.09466 10.7325 8.79595C10.7325 12.3006 0.137157 13.8998 0.137157 22.8826C0.137157 23.6983 0.240024 24.5499 0.41147 25.5026Z" fill="#DB1F27"/>
<path d="M21.0735 25.5026H26.6969V19.9224H21.0735V25.5026Z" fill="#DB1F27"/>
<path fill-rule="evenodd" clip-rule="evenodd" d="M81.8348 0.765869L82.6841 3.16077L86.191 3.98838L82.5289 5.15556L76.8005 9.58235L80.8922 3.72309L81.8348 0.765869ZM81.884 3.82078L81.7759 4.15993L81.2515 4.91094L82.069 4.27914L82.5415 4.12856L81.9431 3.98734L81.884 3.82078Z" fill="#DB1F27"/>
<path fill-rule="evenodd" clip-rule="evenodd" d="M70.0423 9.3855L31.7958 50.2609L32.7779 51.0964L75.5396 14.9753C76.0529 13.2737 76.1289 11.9538 76.032 10.9614C75.9996 10.6335 75.7848 10.0598 75.4679 9.51026C75.3293 9.26937 75.19 9.06633 75.0721 8.92369C75.0173 8.85737 74.9752 8.81389 74.9478 8.78873C74.3908 8.56749 73.0996 8.35235 70.0423 9.3855ZM74.9995 8.81013C74.9997 8.81023 74.9993 8.81003 74.9995 8.81013ZM75.7698 7.0194C74.5686 6.50192 72.6752 6.40361 69.176 7.62186L68.949 7.70089L28.976 50.4213L32.7734 53.6519L77.2283 16.1006L77.3138 15.8343C77.9742 13.776 78.1024 12.1036 77.972 10.7707C77.8996 10.0383 77.5278 9.18036 77.1571 8.5372C77.1572 8.5374 77.157 8.53701 77.1571 8.5372" fill="#DB1F27"/>
<path fill-rule="evenodd" clip-rule="evenodd" d="M77.0567 14.8295C77.0567 14.8295 77.0573 14.8301 76.3847 15.5356L77.0567 14.8295L78.2882 16.0036L76.6553 16.4719L76.6543 16.4722L76.6528 16.4727L76.6345 16.4782C76.6164 16.4837 76.5866 16.493 76.545 16.5065C76.4619 16.5334 76.3316 16.5772 76.154 16.6415C75.7989 16.7699 75.2546 16.98 74.5197 17.3004C73.0499 17.9412 70.8176 19.0233 67.8115 20.7757C61.9229 24.2083 53.0671 30.2117 41.1584 40.5055L43.4316 42.9728L41.9979 44.2937L38.3649 40.3503L39.1212 39.692C51.4905 28.9277 60.6958 22.6672 66.8298 19.0916C69.8969 17.3036 72.1968 16.1866 73.7406 15.5135C73.972 15.4126 74.1863 15.3218 74.3838 15.2401C74.0167 15.002 73.5801 14.7445 73.0811 14.4939C71.3806 13.6399 68.9866 12.8805 66.1518 13.2026L65.9318 11.2657C69.2443 10.8893 72.0218 11.7806 73.9559 12.7519C74.924 13.2381 75.6887 13.748 76.2149 14.1395C76.4783 14.3354 76.683 14.5025 76.8247 14.6232C76.8955 14.6836 76.9507 14.7325 76.9896 14.7676C77.0091 14.7852 77.0245 14.7994 77.0358 14.8099L77.0496 14.8229L77.0542 14.8272L77.056 14.8288L77.0567 14.8295Z" fill="#DB1F27"/>
<path fill-rule="evenodd" clip-rule="evenodd" d="M39.7628 41.0254L42.2848 43.8172L32.8174 51.7945L31.0242 50.3174L39.7628 41.0254ZM31.38 50.2948L32.8157 51.4774L41.9349 43.7934L39.7592 41.3849L31.38 50.2948Z" fill="#DB1F27"/>
<path fill-rule="evenodd" clip-rule="evenodd" d="M122.336 60.8861C122.336 60.8864 122.337 60.8866 121.841 61.7256L122.337 60.8866L125.404 62.7003H95.177L98.4143 60.8764C104.544 57.4229 110.531 57.4273 114.959 58.2859C117.172 58.715 119.003 59.3583 120.285 59.8957C120.926 60.1647 121.431 60.408 121.78 60.586C121.954 60.6751 122.09 60.7479 122.183 60.7997C122.23 60.8255 122.267 60.8461 122.292 60.8608L122.323 60.8783L122.332 60.8837L122.336 60.8861ZM103.557 60.7509H116.862C116.167 60.5482 115.405 60.3581 114.588 60.1996C111.511 59.6029 107.659 59.4557 103.557 60.7509Z" fill="#DB1F27"/>
<path fill-rule="evenodd" clip-rule="evenodd" d="M104.822 5.90606C106.214 5.46139 108.075 5.20197 110.088 5.20197C112.101 5.20197 113.963 5.46139 115.354 5.90606C116.044 6.12661 116.673 6.40989 117.151 6.77064C117.612 7.11926 118.09 7.66762 118.09 8.42234C118.09 9.06311 117.74 9.55728 117.366 9.89397C117.141 10.0972 116.873 10.2748 116.581 10.4307V27.8171C119.217 28.8986 121.511 30.6306 123.26 32.8117L126.444 30.7894L129.692 25.0001L136.185 36.3697L129.983 36.3709L126.282 38.7213C126.661 40.1016 126.864 41.5535 126.864 43.053C126.864 52.171 119.417 59.55 110.247 59.55C101.077 59.55 93.6299 52.171 93.6299 43.053C93.6299 36.1641 97.888 30.2883 103.913 27.8171V10.5869C103.548 10.4194 103.215 10.226 102.938 10.0024C102.513 9.65958 102.086 9.13261 102.086 8.42234C102.086 7.66762 102.564 7.11926 103.025 6.77064C103.503 6.40989 104.132 6.12661 104.822 5.90606ZM104.088 8.42072C104.115 8.39505 104.151 8.36339 104.2 8.32598C104.434 8.14941 104.834 7.94876 105.416 7.76289C106.568 7.39473 108.22 7.15132 110.088 7.15132C111.956 7.15132 113.609 7.39473 114.761 7.76289C115.342 7.94876 115.742 8.14941 115.976 8.32598C116.025 8.36349 116.062 8.39523 116.088 8.42093C116.08 8.42851 116.072 8.43661 116.062 8.44525C115.919 8.57442 115.655 8.73846 115.241 8.90655L114.632 9.15322V29.1685L115.274 29.4015C118.102 30.4271 120.523 32.2881 122.232 34.682L122.769 35.4333L127.903 32.1715L129.707 28.9572L132.827 34.421L129.416 34.4216L123.976 37.8767L124.21 38.5956C124.667 39.9991 124.915 41.4956 124.915 43.053C124.915 51.0802 118.355 57.6007 110.247 57.6007C102.139 57.6007 95.5793 51.0802 95.5793 43.053C95.5793 36.78 99.5924 31.4422 105.22 29.4015L105.862 29.1686V9.23904L105.212 9.00969C104.7 8.82938 104.357 8.64282 104.162 8.48498C104.131 8.46052 104.107 8.43908 104.088 8.42072Z" fill="#DB1F27"/>
<path fill-rule="evenodd" clip-rule="evenodd" d="M48.9902 63.1981C48.9902 50.1748 59.6261 39.6303 72.7319 39.6303C74.792 39.6303 76.7889 39.8944 78.6942 40.384L80.3829 40.818L79.1286 42.0292C77.1536 43.9362 75.9278 46.5914 75.9278 49.5339C75.9278 53.6374 78.3136 57.1872 81.7934 58.9076L82.3935 59.2043L82.3319 59.8709C82.2888 60.3386 82.2599 60.7952 82.2599 61.252C82.2599 67.5654 86.2064 72.9629 91.7966 75.1643L92.9472 75.6173L92.2379 76.6302C87.9506 82.7531 80.815 86.7659 72.7329 86.7659C59.6271 86.7659 48.9902 76.2215 48.9902 63.1981ZM72.7319 41.5797C60.6886 41.5797 50.9396 51.2654 50.9396 63.1981C50.9396 75.1307 60.6895 84.8165 72.7329 84.8165C79.7233 84.8165 85.9396 81.5499 89.9278 76.4734C84.2426 73.7343 80.3105 67.9582 80.3105 61.252C80.3105 60.9437 80.3217 60.6409 80.34 60.3439C76.5506 58.2132 73.9784 54.1799 73.9784 49.5339C73.9784 46.6631 74.9621 44.024 76.6062 41.9231C75.3492 41.6982 74.0549 41.5797 72.7319 41.5797Z" fill="#DB1F27"/>
<path d="M61.2804 60.9893C63.1441 60.9893 64.655 59.49 64.655 57.6406C64.655 55.7911 63.1441 54.2919 61.2804 54.2919C59.4166 54.2919 57.9058 55.7911 57.9058 57.6406C57.9058 59.49 59.4166 60.9893 61.2804 60.9893Z" fill="#F5CECF"/>
<path fill-rule="evenodd" clip-rule="evenodd" d="M61.2804 55.2665C59.9478 55.2665 58.8804 56.3365 58.8804 57.6405C58.8804 58.9446 59.9478 60.0145 61.2804 60.0145C62.613 60.0145 63.6803 58.9446 63.6803 57.6405C63.6803 56.3365 62.613 55.2665 61.2804 55.2665ZM56.9311 57.6405C56.9311 55.2457 58.8854 53.3171 61.2804 53.3171C63.6754 53.3171 65.6297 55.2457 65.6297 57.6405C65.6297 60.0353 63.6754 61.9639 61.2804 61.9639C58.8854 61.9639 56.9311 60.0353 56.9311 57.6405Z" fill="#DB1F27"/>
<path d="M62.1928 79.038C64.3449 79.038 66.0894 77.3068 66.0894 75.1713C66.0894 73.0358 64.3449 71.3047 62.1928 71.3047C60.0408 71.3047 58.2963 73.0358 58.2963 75.1713C58.2963 77.3068 60.0408 79.038 62.1928 79.038Z" fill="#F5CECF"/>
<path fill-rule="evenodd" clip-rule="evenodd" d="M62.1928 72.2794C60.572 72.2794 59.271 73.5812 59.271 75.1713C59.271 76.7615 60.572 78.0633 62.1928 78.0633C63.8137 78.0633 65.1147 76.7615 65.1147 75.1713C65.1147 73.5812 63.8137 72.2794 62.1928 72.2794ZM57.3216 75.1713C57.3216 72.4905 59.5096 70.33 62.1928 70.33C64.8761 70.33 67.0641 72.4905 67.0641 75.1713C67.0641 77.8522 64.8761 80.0127 62.1928 80.0127C59.5096 80.0127 57.3216 77.8522 57.3216 75.1713Z" fill="#DB1F27"/>
<path d="M74.515 66.5203C75.7791 66.5203 76.8038 65.5035 76.8038 64.2491C76.8038 62.9948 75.7791 61.9779 74.515 61.9779C73.2509 61.9779 72.2262 62.9948 72.2262 64.2491C72.2262 65.5035 73.2509 66.5203 74.515 66.5203Z" fill="#F5CECF"/>
<path fill-rule="evenodd" clip-rule="evenodd" d="M74.515 62.9526C73.7821 62.9526 73.2009 63.5401 73.2009 64.2491C73.2009 64.9581 73.7821 65.5457 74.515 65.5457C75.2479 65.5457 75.8291 64.9581 75.8291 64.2491C75.8291 63.5401 75.2479 62.9526 74.515 62.9526ZM71.2515 64.2491C71.2515 62.4494 72.7197 61.0032 74.515 61.0032C76.3103 61.0032 77.7785 62.4494 77.7785 64.2491C77.7785 66.0489 76.3103 67.495 74.515 67.495C72.7197 67.495 71.2515 66.0489 71.2515 64.2491Z" fill="#DB1F27"/>
<path d="M68.3953 49.687C69.6693 49.687 70.7022 48.6621 70.7022 47.3978C70.7022 46.1335 69.6693 45.1086 68.3953 45.1086C67.1212 45.1086 66.0884 46.1335 66.0884 47.3978C66.0884 48.6621 67.1212 49.687 68.3953 49.687Z" fill="#F5CECF"/>
<path fill-rule="evenodd" clip-rule="evenodd" d="M68.3953 46.0833C67.6524 46.0833 67.0631 46.6789 67.0631 47.3978C67.0631 48.1167 67.6524 48.7123 68.3953 48.7123C69.1381 48.7123 69.7275 48.1167 69.7275 47.3978C69.7275 46.6789 69.1382 46.0833 68.3953 46.0833ZM65.1137 47.3978C65.1137 45.5882 66.59 44.134 68.3953 44.134C70.2005 44.134 71.6769 45.5882 71.6769 47.3978C71.6769 49.2075 70.2005 50.6617 68.3953 50.6617C66.59 50.6617 65.1137 49.2075 65.1137 47.3978Z" fill="#DB1F27"/>
<path d="M76.3657 81.9378C77.9796 81.9378 79.2879 80.6395 79.2879 79.0381C79.2879 77.4366 77.9796 76.1383 76.3657 76.1383C74.7518 76.1383 73.4435 77.4366 73.4435 79.0381C73.4435 80.6395 74.7518 81.9378 76.3657 81.9378Z" fill="#F5CECF"/>
<path fill-rule="evenodd" clip-rule="evenodd" d="M76.3657 77.113C75.283 77.113 74.4182 77.982 74.4182 79.0381C74.4182 80.0942 75.283 80.9631 76.3657 80.9631C77.4484 80.9631 78.3132 80.0942 78.3132 79.0381C78.3132 77.982 77.4484 77.113 76.3657 77.113ZM72.4688 79.0381C72.4688 76.8912 74.2206 75.1636 76.3657 75.1636C78.5108 75.1636 80.2626 76.8912 80.2626 79.0381C80.2626 81.1849 78.5108 82.9125 76.3657 82.9125C74.2206 82.9125 72.4688 81.1849 72.4688 79.0381Z" fill="#DB1F27"/>
</svg>
