<svg width="147" height="85" viewBox="0 0 147 85" fill="none" xmlns="http://www.w3.org/2000/svg">
<path d="M1.01601 25.7555H18.152V20.3555H12.644V0.0155029H7.20801L0.26001 6.5315L3.89601 10.4195L5.44401 9.0155C6.12801 8.3675 6.45201 7.6475 6.45201 7.6475H6.52401C6.52401 7.6475 6.48801 8.6555 6.48801 9.6275V20.3555H1.01601V25.7555Z" fill="#E2E2E2"/>
<path d="M21.0568 25.7555H26.9608V19.8515H21.0568V25.7555Z" fill="#E2E2E2"/>
<path d="M52.591 64.3125C48.7972 59.964 45.3875 55.2948 42.4 50.3575C41.3879 48.6444 40.5341 46.8426 39.849 44.9745C39.3291 43.5948 39.0422 42.1383 39 40.6645C38.9846 38.87 39.3248 37.0901 40.0009 35.4277C40.677 33.7654 41.6756 32.2533 42.9391 30.9789C44.2026 29.7045 45.706 28.693 47.3625 28.0026C49.0191 27.3123 50.7959 26.9569 52.5905 26.9569C54.3851 26.9569 56.162 27.3123 57.8185 28.0026C59.475 28.693 60.9784 29.7045 62.2419 30.9789C63.5054 32.2533 64.5041 33.7654 65.1802 35.4277C65.8562 37.0901 66.1964 38.87 66.181 40.6645C66.1389 42.1383 65.852 43.5948 65.332 44.9745C64.6469 46.8408 63.7941 48.6412 62.784 50.3535C59.7955 55.2919 56.3851 59.9623 52.591 64.3125V64.3125ZM52.449 34.5955C51.6381 34.5936 50.8349 34.7533 50.0864 35.0655C49.338 35.3777 48.6593 35.8359 48.09 36.4135C46.9331 37.5819 46.2841 39.1597 46.2841 40.804C46.2841 42.4483 46.9331 44.0261 48.09 45.1945C48.6564 45.7668 49.3299 46.222 50.0722 46.534C50.8145 46.8461 51.611 47.0088 52.4162 47.013C53.2214 47.0172 54.0195 46.8627 54.765 46.5584C55.5105 46.2541 56.1887 45.8059 56.761 45.2395L56.807 45.1945C57.963 44.0256 58.6113 42.4479 58.6113 40.804C58.6113 39.16 57.963 37.5824 56.807 36.4135C56.2379 35.836 55.5593 35.3779 54.8111 35.0657C54.0628 34.7535 53.2598 34.5937 52.449 34.5955V34.5955Z" fill="#DC1C22" fill-opacity="0.2" stroke="#DC1C22" stroke-width="2.3" stroke-linecap="round"/>
<path d="M142.665 82.4975V65.4425L144.655 67.4325L146.221 65.8665L141.421 61.0665V49.9215H134.78V54.4215L127.333 46.9695L108.433 65.8615L109.999 67.4275L111.989 65.4375V82.4925H108.433V84.7035H146.224V82.4925L142.665 82.4975ZM136.995 52.1355H139.209V58.8555L136.995 56.6415V52.1355ZM114.206 63.2325L127.333 50.1125L140.456 63.2325V82.5015H114.206V63.2325Z" fill="#DC1C22"/>
<path d="M118.434 78.4985H125.077V65.9505H118.434V78.4985ZM120.648 76.2845V72.5905H122.862V76.2815L120.648 76.2845ZM122.862 68.1655V70.3795H120.648V68.1655H122.862Z" fill="#DC1C22"/>
<path d="M129.58 65.9505V78.4985H136.223V65.9505H129.58ZM134.009 68.1645V70.3785H131.795V68.1645H134.009ZM131.795 76.2835V72.5905H134.009V76.2815L131.795 76.2835Z" fill="#DC1C22"/>
<path d="M130.65 59.4325C130.65 58.7755 130.456 58.1331 130.091 57.5867C129.726 57.0403 129.207 56.6144 128.6 56.3628C127.993 56.1111 127.325 56.0451 126.681 56.1731C126.037 56.3011 125.445 56.6173 124.98 57.0818C124.515 57.5462 124.199 58.1381 124.07 58.7824C123.942 59.4268 124.007 60.0948 124.259 60.7019C124.51 61.3089 124.935 61.8279 125.482 62.1931C126.028 62.5583 126.67 62.7533 127.327 62.7535V62.7535C128.208 62.7527 129.052 62.4026 129.675 61.78C130.298 61.1575 130.649 60.3132 130.65 59.4325V59.4325ZM127.328 60.5395C127.109 60.5395 126.895 60.4746 126.713 60.3529C126.531 60.2313 126.389 60.0584 126.305 59.8561C126.222 59.6538 126.2 59.4313 126.242 59.2165C126.285 59.0018 126.391 58.8045 126.545 58.6497C126.7 58.4949 126.897 58.3895 127.112 58.3468C127.327 58.3041 127.549 58.326 127.752 58.4098C127.954 58.4935 128.127 58.6354 128.249 58.8175C128.37 58.9995 128.435 59.2135 128.435 59.4325V59.4325C128.435 59.7257 128.318 60.0069 128.111 60.2143C127.903 60.4218 127.622 60.5387 127.329 60.5395H127.328Z" fill="#DC1C22"/>
<path d="M112.78 77.7675H84.1301V17.7455H115.93V60.5405" stroke="#DC1C22" stroke-width="2.2"/>
<path d="M111.345 13.5405H88.7161V17.7455H111.345V13.5405Z" stroke="#DC1C22" stroke-width="2.2"/>
<path d="M93.4421 23.6954H88.7161V28.4214H93.4421V23.6954Z" fill="white" stroke="#DC1C22" stroke-width="2.2"/>
<path d="M102.394 23.6954H97.668V28.4214H102.394V23.6954Z" fill="white" stroke="#DC1C22" stroke-width="2.2"/>
<path d="M111.345 23.6954H106.619V28.4214H111.345V23.6954Z" fill="white" stroke="#DC1C22" stroke-width="2.2"/>
<path d="M93.4421 32.5395H88.7161V37.2655H93.4421V32.5395Z" fill="white" stroke="#DC1C22" stroke-width="2.2"/>
<path d="M102.394 32.5395H97.668V37.2655H102.394V32.5395Z" fill="white" stroke="#DC1C22" stroke-width="2.2"/>
<path d="M111.345 32.5395H106.619V37.2655H111.345V32.5395Z" fill="white" stroke="#DC1C22" stroke-width="2.2"/>
<path d="M93.4421 41.4714H88.7161V46.1974H93.4421V41.4714Z" fill="white" stroke="#DC1C22" stroke-width="2.2"/>
<path d="M102.394 41.4714H97.668V46.1974H102.394V41.4714Z" fill="white" stroke="#DC1C22" stroke-width="2.2"/>
<path d="M111.345 41.4714H106.619V46.1974H111.345V41.4714Z" fill="white" stroke="#DC1C22" stroke-width="2.2"/>
<path d="M93.4421 50.3154H88.7161V55.0414H93.4421V50.3154Z" fill="white" stroke="#DC1C22" stroke-width="2.2"/>
<path d="M102.394 50.3154H97.668V55.0414H102.394V50.3154Z" fill="white" stroke="#DC1C22" stroke-width="2.2"/>
<path d="M111.345 50.3154H106.619V55.0414H111.345V50.3154Z" fill="white" stroke="#DC1C22" stroke-width="2.2"/>
<path d="M93.4421 59.1595H88.7161V63.8855H93.4421V59.1595Z" fill="white" stroke="#DC1C22" stroke-width="2.2"/>
<path d="M102.394 59.1595H97.668V63.8855H102.394V59.1595Z" fill="white" stroke="#DC1C22" stroke-width="2.2"/>
<path d="M106.619 68.8115H93.4421V77.7675H106.619V68.8115Z" stroke="#DC1C22" stroke-width="2.2"/>
<path d="M78.5291 77.7675H85.9481" stroke="#DC1C22" stroke-width="2.2"/>
<path d="M100.031 69.2715V77.7675" stroke="#DC1C22" stroke-width="2.2"/>
</svg>
